<?xml version="1.0" encoding="utf-8"?>
<!-- Generator: Adobe Illustrator 13.0.2, SVG Export Plug-In . SVG Version: 6.00 Build 14948)  -->
<!DOCTYPE svg PUBLIC "-//W3C//DTD SVG 1.1//EN" "http://www.w3.org/Graphics/SVG/1.1/DTD/svg11.dtd">
<svg version="1.1" id="fox_xA0_Image_1_" xmlns="http://www.w3.org/2000/svg" xmlns:xlink="http://www.w3.org/1999/xlink" x="0px"
	 y="0px" width="326.998px" height="172px" viewBox="0 0 326.998 172" enable-background="new 0 0 326.998 172"
	 xml:space="preserve">
<g>
	<path fill-rule="evenodd" clip-rule="evenodd" d="M148.059,74.975c0.095-1.567,2.133-0.185,2.52,0
		C150.484,76.542,148.446,75.159,148.059,74.975z"/>
	<path fill-rule="evenodd" clip-rule="evenodd" d="M165.7,90.726c-0.178-1.018,0.596-1.085,0.63-1.891
		C167.552,88.586,167.25,91.705,165.7,90.726z"/>
	<path fill-rule="evenodd" clip-rule="evenodd" d="M169.48,90.726C167.955,92.792,166.469,88.974,169.48,90.726L169.48,90.726z"/>
	<path fill-rule="evenodd" clip-rule="evenodd" d="M166.96,95.766c0.256-1.569,2.442-0.037,1.89,1.26
		C168.023,96.803,167.859,95.916,166.96,95.766z"/>
	<path fill-rule="evenodd" clip-rule="evenodd" d="M114.037,57.963c13.421,0.666,27.018,3.537,39.062,6.93
		c1.198,0.338,2.286,0.823,3.15,1.89c5.858-0.38,9.926,3.62,14.491,2.521c6.101,3.35,16.272,2.628,20.791,7.56
		c-8.604-1.837-16.68-5.605-25.202-5.67c8.481,4.12,19.835,5.367,28.982,8.82c1.294-0.176,1.257-1.683,1.89-2.52
		c-0.271-1.409-3.104-0.255-4.41-0.63c1.114-2.615,7.261-3.021,9.45-2.52c1.898-1.252,3.863-2.438,7.561-1.89
		c2.095-3.417,9.519-3.338,11.971-1.26c2.729-1.939,5.073-2.154,8.821-2.521c0.447-0.043,1.783-1.262,1.89-1.26
		c1.786,0.042,1.441,2.032,1.891-0.63c2.164,1.111,4.722,0.543,5.67-1.26c11.729,0.178,16.737-6.364,26.462-8.19
		c5.163-4.917,14.422-5.739,20.791-9.451c5.794,1.798,11.684-4.537,18.271-1.89c-0.09,3.061-5.102,1.199-6.931,2.52
		c4.262,1.914,9.979-1.144,15.751-0.63c1.378,0.123,1.769,1.555,3.15,1.89c4.158,1.01,9.086-1.559,9.45,4.41
		c0.12,1.968-1.174,1.105-2.521,3.15c-0.269,0.408,0.315,1.524,0,1.89c-1.731,2.009-5.187,3.714-6.93,5.04
		c-0.543-3.61,5.711-5.536,5.67-10.71c-5.771-2.865-12.265-1.225-17.011,0c-0.529-0.731-0.831-1.689-0.63-3.15
		c-8.193-1.683-10.243,2.778-16.382,3.15c0.649,2.816,5.152-1.396,6.931,0.63c1.338-1.667,3.34-3.639,5.67-2.52
		c-0.244,1.855-2.968,1.231-3.779,2.52c0.301,0.865,4.189,0.039,5.04-0.63c1.701,0.188,1.13,2.65,2.521,3.15
		c-3.146,1.895-4.838,5.244-8.821,6.301c3.19,1.701,6.296-2.091,8.19-3.78c0.988,4.357-7.198,4.975-10.71,6.93
		c4.597,3.622,8.384-2.981,13.23-3.15c-1.103,2.476-1.603,2.69-1.89,5.04c-2.098,1.894-6.164,1.817-8.191,3.78
		c3.498,2.581,8.669-3.304,11.341-5.67c1.819,5.481-9.442,4.956-8.82,9.451c-3.674-1.184-9.071,2.773-11.971,2.52
		c1.163,3.364,8.89,0.548,11.341-0.63c2.018-0.969,3.058-3.22,5.04-4.41c1.326-0.796,2.984-0.63,4.41-1.26
		c3.598-1.589,6.487-4.656,9.451-5.67c2.523-0.626,1.988-4.312,5.67-3.78c1.491,5.166-5.035,7.489-8.82,9.451
		c-0.057,1.719,1.05,1.268,0,2.52c-7.448,4.732-13.116,11.246-23.312,13.231c-0.295,1.345,0.9,1.2,1.891,1.26
		c-4.815,3.284-10.211,2.492-15.121,5.041c3.198,2.125,6.637-0.906,9.45-1.261c-1.529,3.931-7.879,3.042-11.341,5.041
		c-5.098-2.813-10.034,3.809-17.641,2.52c2.996-1.674-0.539-2.266-3.15-1.89c-1.861,0.548,1.462,0.942,0.63,2.52
		c-9.67,1.499-17.352,3.919-27.722,3.15c-0.106-1.366,2.234-0.285,3.15-0.63c-1.572-1.578-4.391-1.91-7.561-1.891
		c-1.005,0.947,0.018,2.653,1.26,3.15c-2.045,1.18-4.761-2.36-6.93-3.15c-1.375,1.561,0.442,3.747,1.89,4.411
		c0.16,8.029,7.192,9.188,8.82,15.751c3.95,4.87,13.589,4.052,15.121,11.34c4.048,0.152,5.612,2.789,9.45,3.15
		c0.079,1.577,1.203,1.973-0.63,2.521c0.771,0.91,2.405,0.955,3.15,1.89c0.108,0.854-3.646,0.816-1.26,1.891
		c-1.809,1.164-3.339-3.073-5.671-1.891c2.153,2.887,4.508,5.574,6.301,8.82c2.188-1.283-1.829-3.297,0-4.41
		c3.769,1.346,2.961,8.94,6.931,8.19c0.497,3.353,0.627,4.368,0,8.191c-2.126,0.501-8.82,4.422-8.821-0.631
		c1.345-0.294,1.2,0.9,1.261,1.891c2.979,0.249,2.873-2.587,6.3-1.891c-0.198-3.616-0.166-5.245-1.89-8.19
		c-1.237,0.674,0.414,3.737,1.26,4.41c-0.151,1.108-1.084,1.437-2.52,1.261c-1.595,0.426,2.277,2.094-0.631,2.52
		c-2.814-0.262-1.411-3.015-1.89-4.41c-2.077-6.052-6.34-11.141-12.601-13.86c-2.354-0.674-1.796,1.564-3.78,1.26
		c-1.554-0.967-3.222-1.819-4.41-3.15c-7.085-2.191-13.799-1.472-20.792-3.15c-5.637-1.353-10.291-5.445-15.12-5.67
		c-1.053-0.049-1.441,0.937-2.521,0.63c-4.96-1.409-7.666-6.567-12.601-7.561c-1.979-0.298-1.665,1.696-3.15,1.891
		c1.802,4.498,6.444,6.156,8.19,10.71c-3.652,1.388-5.229,4.852-6.3,8.821c-6.325,4.386-12.331,9.09-17.642,14.49
		c-2.597-1.18-3.687-1.218-5.67,0.631c-4.304-0.271-6.498-2.507-9.451-2.521c1.045-4.246,5.658-9.349,10.081-6.301
		c4.216-3.345,10.389-4.731,10.711-11.971c-1.238-2.358-3.905-0.941-5.671-1.26c-5.66-1.021-10.288-3.618-15.121-5.04
		c-0.512-8.967-12.617-2.477-15.121-9.451c-4.822,3.561-9.105-3.686-13.231-0.63c0.365-2.045-0.429-2.931-0.63-4.41
		c-0.903,0.776-1.194,2.167-1.26,3.78c-2.526-2.44-6.454,0.379-8.19-2.521c-4.92,4.102-11.471,3.346-17.641,1.261
		c-7.081,11.4-11.824,25.138-18.901,36.542c-0.731,0.528-1.689,0.831-3.15,0.63c-0.723,3.477-3.213,5.188-3.78,8.82
		c-3.783-0.439-4.4,1.718-6.93,3.78c-2.358-1.632-7.578-0.402-8.19-3.78c-2.153-0.473-0.801,2.56-3.15,1.891
		c-0.541-3.811,6.723-4.951,10.081-6.931c4.372-4.449,5.835-11.806,9.451-17.011c0.229-9.252,3.259-21.08,5.67-30.242
		c-3.16-5.24-5.805-10.996-12.601-12.601c-0.294-8.316-8.132-9.089-8.19-17.642c-2.299-1.271-2.427-4.713-5.67-5.04
		c-0.438-8.926-6.327-12.475-5.04-20.161c-1.397-0.347-0.897,1.203-1.89,1.26c-1.918,0.238-1.07-2.291-2.52-2.52
		c-8.889,0.546-14.604-3.105-23.941,0.63C10.083,56.07,3.023,54.311,0,48.513c5.729-5.953,16.274-5.606,20.161-13.23
		c0.845-1.658,1.465-3.834,2.52-5.67c3.339-5.812,2.013-4.401,3.15-11.971c0.932,0.729,1.588,0.729,2.52,0
		c-1.463-4.574-4.13-10.056-2.52-15.751c4.796-0.062,5.065,5.297,6.931,8.19c1.258,1.952,3.246,2.864,3.78,5.04
		C39.593,10.611,37.078,0.536,44.103,0c5.982,4.309,8.412,12.169,12.601,18.271c0.561-0.489,1.422-0.677,2.52-0.63
		c-0.148,3.088,1.874,4.006,4.41,4.41c-0.741,3.368,3.339,3.378,6.3,5.67c1.025,0.793,1.468,2.402,2.521,3.15
		c2.233,1.587,5.279,2.173,6.93,3.78c1.688,1.644,1.596,4.123,5.041,4.41c0,0.84,0,1.68,0,2.521c2.606,0.544,4.804,1.497,5.67,3.78
		c4.449-0.669,5.556,2.004,8.821,2.52c-0.223,0.828-1.109,0.991-1.26,1.89c1.781,1.159,2.844,3.036,5.67,3.15
		c1.483-1.558-1.239-2.463-2.52-3.15c2.041-1.708,6.761,4.81,11.971,5.04C112.308,56.752,114.506,56.024,114.037,57.963z
		 M214.843,100.806c1.862,0.55-1.905,0.501-0.631,2.521c2.37-0.27,2.23,1.971,3.78,2.521
		C218.114,103.388,216.215,99.68,214.843,100.806z M172,80.015c2.266,0.884,6.34-0.039,7.561,1.89c-2.506,0.549-3.165,0.549-5.671,0
		c-0.106,3.461,3.4,1.627,5.041,1.89c1.028,0.165,1.723,1.142,2.52,1.26c1.187,0.177,1.395-0.738,2.521-0.63
		c5.209,0.501,11.402,3.721,14.49,6.931c2.301,2.391,3.474,6.064,5.671,8.82c3.358-0.059,4.09,3.918,6.931,2.521
		c1.981,2.849,4.759,4.901,7.561,6.931c0.521-1.781-0.889-1.633-0.631-3.15c-7-3.5-12.349-8.652-16.381-15.121
		c4.965,0.495,6.192,4.729,11.341,5.04c-1.181-1.969-1.314-4.985-3.78-5.67c-1.19,0.069-0.438,2.083-1.89,1.89
		c-2.715-2.535-7.712-2.789-9.451-6.3c3.537,0.256,8.298,6.436,10.711,1.89c-4.917-0.498-14.339-2.428-14.491-7.561
		c-2.485,0.354-4.878-2.64-6.93-0.63c1.706,1.105,3.535,1.36,5.04,2.52c0.306,0.236-0.248,1.578,0,1.89
		c0.994,1.255,3.595,0.321,3.78,1.891C186.575,86.203,180.564,74.901,172,80.015z M186.491,87.575
		c9.852,1.279,11.565,10.696,18.271,15.121C200.915,95.831,195.624,87.057,186.491,87.575z M227.444,119.077
		c-0.84,0-1.681,0-2.521,0c1.276,2.715,3.491,4.489,5.671,6.3C229.972,122.85,227.976,121.695,227.444,119.077z M45.993,15.751
		c0.152-1.108,1.084-1.437,2.52-1.26c0-0.63,0-1.26,0-1.89C46.283,11.89,44.682,15.003,45.993,15.751z M51.663,16.381
		c-1.358,2.317-4.224-0.564-5.041,2.52c1.875,2.238,3.505-1.074,5.67-0.63c-1.073,2.314,1.202,1.819-0.63,4.41
		c1.781,0.521,1.632-0.888,3.15-0.63c-0.186,1.285-1.705,1.235-1.89,2.52c2.966,0.265,0.798,2.009,1.89,4.41
		c-1.202,0.269-1.14,1.8-3.15,1.26c-0.466,2.146,2.322,1.039,2.52,2.52c-1.097-0.047-1.959,0.141-2.52,0.63
		c0.356,1.534,0.54,3.241,2.52,3.15c2.312-3.239,0.316-6.877,3.15-9.451C56.045,17.25,50.321,11.843,46.623,4.41
		c-1.173,0.603-2.105-1.887-2.52,0C46.591,8.432,48.625,12.909,51.663,16.381z M37.802,18.271c-1.523-1.449-2.038,1.664-2.52,3.15
		c2.971,0.739,1.37-3.48,3.15-0.63c1.631-1.49,3.26-7.181,0-8.19C38.927,15.195,37.465,15.834,37.802,18.271z M41.583,20.161
		c2.829,0.323,1.664-2.892,0.63-3.78C41.487,17.125,41.5,18.608,41.583,20.161z M44.733,20.791c0.42,0,0.84,0,1.26,0
		c0-0.42,0-0.84,0-1.26c-0.42,0-0.84,0-1.26,0C44.733,19.951,44.733,20.371,44.733,20.791z M43.473,29.612
		c0.106-0.734,0.996-0.684,1.89-0.63c-1.784-2.836-3.958-5.282-5.67-8.19c-0.152,1.108-1.084,1.437-2.52,1.26
		c0.521,1.781-0.888,1.632-0.63,3.15C38.986,24.631,42.279,27.01,43.473,29.612z M32.762,27.091c1.191-0.141,1.39,0.71,2.52,0.63
		c-0.027-0.868,0.296-1.383,0.63-1.89C34.349,25.739,32.854,25.714,32.762,27.091z M48.513,28.352c0-0.84,0-1.68,0-2.52
		c-1.05,0-2.1,0-3.15,0C45.58,27.504,47.017,27.958,48.513,28.352z M41.583,34.652c-0.886-0.164-0.718-1.382-1.26-1.89
		c-1.781-0.521-1.632,0.888-3.15,0.63c-0.371-2.261,0.732-3.048,1.26-4.411c-1.837-0.721-3.726-0.953-4.41,0.63
		c3.127,0.257-0.562,2.156-0.63,3.15C36.966,32.472,38.906,37.9,41.583,34.652z M41.583,32.762c0.151-0.899,1.038-1.062,1.26-1.89
		c-0.63,0-1.26,0-1.89,0C41.051,31.613,40.844,32.66,41.583,32.762z M46.623,37.802c2.886,0.474,3.646,3.075,6.301,3.78
		c-0.196-3.165-2.692-4.028-3.78-6.3c0.63,0,1.26,0,1.89,0c0.015-2.326-0.282-4.338-2.521-4.411
		C49.624,34.612,48.61,35.868,46.623,37.802z M68.674,40.322c1.452-2.406-1.258-5.229-3.15-6.3
		C65.708,36.988,66.452,39.394,68.674,40.322z M26.461,36.542c0.394,1.496,3.878-0.098,4.411,1.26c-0.865-1.436,1.624-2.369,0-2.52
		C30.741,37.108,26.194,33.22,26.461,36.542z M23.312,37.172C21.398,39.294,25.641,39.083,23.312,37.172L23.312,37.172z
		 M75.604,44.732c-1.958-2.452-2.109-6.711-5.67-7.561C70.994,40.523,71.748,44.179,75.604,44.732z M27.722,42.212
		c2.828,2.819,8.276-2.63,4.41-4.41C32.305,40.916,28.96,40.511,27.722,42.212z M30.872,39.062
		C28.325,36.846,29.386,41.089,30.872,39.062L30.872,39.062z M80.015,42.842c-0.95-0.548,0.173-0.943-0.63-2.52
		c-0.943,0.107-2.325-0.225-2.52,0.63C77.821,41.315,78.447,45.17,80.015,42.842z M68.674,44.732c1.66,0.19,2.067-0.872,1.89-2.52
		c-0.63,0-1.26,0-1.89,0C68.674,43.052,68.674,43.893,68.674,44.732z M51.663,48.513c1.282-1.734-0.814-5.462-3.15-5.67
		C48.854,45.441,49.794,47.441,51.663,48.513z M66.154,52.293c0.032-3.106-0.586-7.294-3.78-8.82
		C62.421,47.625,63.372,50.875,66.154,52.293z M85.685,45.363c1.513-1.513-2.067-1.632-1.89-0.63
		C83.787,44.688,85.927,45.121,85.685,45.363z M46.623,50.403c2.414,0.128,2.116-3.653,0-3.78
		C46.623,47.883,46.623,49.143,46.623,50.403z M68.674,46.623C66.761,48.745,71.003,48.533,68.674,46.623L68.674,46.623z
		 M76.865,56.073c-2.412-2.419-1.983-7.678-5.67-8.82C72.56,50.307,74.403,56.211,76.865,56.073z M81.275,53.553
		c-2.034-1.746-2.395-5.166-5.67-5.67C75.877,50.986,78.739,54.808,81.275,53.553z M86.945,56.073
		c-0.388-2.779-3.355-6.282-5.041-5.67C83.201,52.677,84.551,54.897,86.945,56.073z M293.598,51.033
		c-0.535-0.535-1.798,0.458-1.891,0.63C291.112,52.769,294.033,51.468,293.598,51.033z M88.205,52.293
		c0.134,3.242,4.039,6.021,6.931,4.41C92.996,55.062,90.875,53.403,88.205,52.293z M97.026,55.443
		c2.492,3.389,6.275,5.485,10.081,7.561c-2.022-5.119-7.518-6.764-10.71-10.711c-3.171,2.498-2.443-0.827-6.301-0.63
		C91.753,53.295,95.719,57.439,97.026,55.443z M61.744,57.963c0.528-1.533,0.977-4.089-1.26-4.41
		C60.591,55.335,59.941,57.875,61.744,57.963z M107.736,56.073c0.42,0,0.84,0,1.26,0c0-0.42,0-0.84,0-1.26c-0.42,0-0.84,0-1.26,0
		C107.736,55.233,107.736,55.653,107.736,56.073z M57.333,56.703c0,0.42,0,0.84,0,1.26c1.55,0.979,1.853-2.14,0.63-1.89
		C57.928,56.458,57.869,56.819,57.333,56.703z M71.824,56.703c-1.033,2.722,0.907,7.334,3.15,8.821
		C75.164,61.345,73.634,58.884,71.824,56.703z M75.604,59.224c-0.004-1.886-1.132-2.648-2.52-3.15
		C73.44,57.607,73.624,59.314,75.604,59.224z M278.477,59.224c2.303-0.847,6.314,0.014,6.93-2.521
		C282.878,57.324,278.967,56.564,278.477,59.224z M289.817,59.224c3.151,1.005,8.604-1.546,5.671-2.521
		C293.928,57.874,291.148,57.824,289.817,59.224z M90.095,60.483c0.166,2.172,3.912,4.032,5.041,3.15
		c-2.512-2.738-4.672-5.829-9.451-6.3c0.027,0.867-0.297,1.383-0.63,1.89C86.625,61.104,88.146,59.755,90.095,60.483z
		 M298.638,57.333c-3.073,5.217-9.826,2.855-13.861,6.93c6.119-1.651,14.195-1.346,16.381-6.93
		C300.318,57.333,299.478,57.333,298.638,57.333z M114.667,63.004c0.133-0.707,0.699-0.981,1.26-1.26
		c-0.25-2.709-5.117-4.098-7.56-2.52C110.778,60.172,112.215,62.095,114.667,63.004z M267.766,61.744
		c1.341-1.389,4.319-1.142,5.04-3.15C270.195,58.319,266.584,60.315,267.766,61.744z M54.813,61.744
		c0.036-0.384,0.094-0.746,0.63-0.63c-0.071-0.769-0.188-1.492-1.26-1.26C54.282,60.595,54.075,61.642,54.813,61.744z
		 M105.846,64.264c-0.932-0.328-1.588-0.932-2.52-1.26C102.86,64.4,105.648,65.6,105.846,64.264z M95.766,60.483
		c2.226,1.309,3.344,6.498,6.3,5.041c0.866,2.915,2.874,4.687,5.041,6.3C106.566,65.22,99.848,61.447,95.766,60.483z
		 M274.697,63.004c2.976,1.095,9.232,0.558,10.08-2.521C281.065,60.972,277.633,61.74,274.697,63.004z M76.865,64.264
		c1.313-0.488-0.464-3.788-1.26-1.89C76.645,62.383,75.957,64.121,76.865,64.264z M99.546,93.245
		c-2.747-3.763-5.293-7.728-8.82-10.71C91.593,88.178,94.901,91.38,99.546,93.245z M88.835,81.905
		c-1.761-4.76-2.312-10.945-4.41-13.861c0.689-2.131,0.291-6.442-3.78-5.67c4.762,10.779,5.667,25.415,15.121,31.502
		C93.627,89.62,90.58,86.619,88.835,81.905z M114.037,66.154c0.137-2.474-3.474-4.47-5.04-3.15
		C111.715,63.015,111.318,66.142,114.037,66.154z M105.216,83.165c-0.993-5.728-6.127-7.314-9.451-10.711
		c-2.191-3.479-3.181-8.159-7.561-9.45C92.207,71.393,97.87,78.121,105.216,83.165z M126.638,65.524
		c0.097-2.828-2.831-2.629-5.67-2.52C121.055,65.646,123.854,65.577,126.638,65.524z M147.429,66.154
		c0.101-1.822-3.781-2.882-4.41-1.89C144.676,64.717,145.407,67.991,147.429,66.154z M111.517,70.564
		c2.831-0.904,4.95,2.143,6.3,0.63c-2.627-3.043-6.263-5.078-10.081-6.931C108.277,67.083,111.169,67.551,111.517,70.564z
		 M122.857,66.154c-1.972-0.366-5.011-2.933-6.931-1.26C117.572,65.586,120.667,68.098,122.857,66.154z M278.477,68.044
		c4.981,0.715,11.636-1.037,15.121-3.78C288.116,65.791,281.098,65.173,278.477,68.044z M71.194,64.894
		c-0.701,3.813,2.596,7.375,3.78,11.341c0.855,2.863-0.571,6.014,1.89,8.19c0.801-2.649-1.645-5.267,0.63-5.67
		c-0.725,4.505,1.49,6.071,1.26,10.081c3.291,0.248,0.791-2.739,0.63-4.41c-0.384-3.992-1.299-9.585,0-13.23
		c-2.938,0.973-2.497-2.771-4.41-4.411c-0.708,2.431,1.131,5.533,0,6.301C73.509,70.559,74.316,65.762,71.194,64.894z
		 M80.645,74.344c0.396,1.074,1.903,1.037,2.52,1.89c1.325,5.815,1.988,12.293,5.67,15.751c-0.346-2.513-0.346-1.897,0-4.41
		c-5.079-5.842-3.955-17.887-10.081-22.682C80.134,68.241,80.434,71.151,80.645,74.344z M97.656,66.154
		C98.494,69.275,100.631,67.138,97.656,66.154L97.656,66.154z M157.509,68.044c-1.914-1.026-4.031-1.849-6.93-1.89
		C150.285,68.992,155.717,69.384,157.509,68.044z M121.597,73.084c0.077,1.603,0.917,2.443,2.521,2.52
		c-0.642-2.742,1.303-2.897,1.89-4.41c-3.978-0.853-6.432-3.229-10.081-4.411c1.214,3.617,6.076,3.585,8.191,6.301
		C123.277,73.084,122.438,73.084,121.597,73.084z M100.176,73.714c0.707-3.284,3.759,0.449,5.04,0.63
		c-0.641-2.509-1.907-4.393-3.78-5.67c-1.048,1.979,2.343,2.575,0.63,3.15c-2.296-0.854-3.113-3.188-5.67-3.78
		C97.292,70.298,98.025,72.715,100.176,73.714z M291.078,68.044c-0.942,0.107-2.325-0.225-2.521,0.63
		C289.5,68.566,290.882,68.899,291.078,68.044z M241.934,71.194c2.679-1.102,8.038,0.477,9.451-1.89
		C248.745,68.163,243.528,69.253,241.934,71.194z M149.949,70.564c-0.438-0.493-3.516-1.402-3.78,0
		C147.513,71.529,149.6,70.999,149.949,70.564z M263.986,72.454c2.181,0.738,5.796-0.355,6.931-2.52
		C267.293,69.461,265.6,70.918,263.986,72.454z M162.549,71.824c-1.775-0.954-3.938-1.522-6.93-1.26
		C155.928,72.592,161.039,73.089,162.549,71.824z M133.568,72.454c0.491,0.139,0.732,0.528,0.63,1.26c1.26,0,2.52,0,3.78,0
		C137.306,71.962,134.538,70.467,133.568,72.454z M95.766,79.385c-0.991-3.209-1.125-7.275-5.04-7.561
		C92.209,74.541,93.055,77.895,95.766,79.385z M144.909,74.975c2.121,1.029,4.59,1.71,6.3,3.15c1.543-0.837-0.692-2.344,0.63-2.52
		c3.586,0.819,10.904,1.724,15.121,1.26c-6.872-2.368-14.583-3.898-22.682-5.04C144.537,73.977,145.98,72.625,144.909,74.975z
		 M258.316,73.084c1.765-0.725,3.274-0.725,5.04,0C264.049,71.079,257.623,71.079,258.316,73.084z M308.088,74.975
		c0.787-2.444,3.689,0.882,4.41-1.89c-1.191,0.141-1.39-0.71-2.52-0.63C309.283,72.881,306.71,74.548,308.088,74.975z
		 M211.693,74.344c5.733,0.404,12.157,3.619,16.381-0.63C222.895,73.739,215.421,72.444,211.693,74.344z M260.835,76.234
		c2.472,0.913,6.816-0.372,8.82,0c0.365,0.068-0.191,1.386,0.631,1.26c0.207-0.032-0.191-2.333,0.63-1.89
		c3.312,1.771,10.229-0.333,9.45-2.52C274.29,74.949,266.349,73.27,260.835,76.234z M92.616,80.645
		c0.118-3.478-1.696-5.024-3.15-6.93C90.343,76.197,90.145,79.755,92.616,80.645z M120.337,91.985c0.229,3.206,1.92,6.221,0,8.19
		c5.889-0.622,3.309-7.04,3.15-9.45c-3.413,0.045-4.713-3.898-6.93-5.671c-0.833-0.665-3.023-0.411-3.78-1.26
		c-1.998-2.239-3.924-3.926-6.3-5.67c-1.754-1.288-3.51-3.606-5.67-3.15C106.411,81.55,113.518,86.624,120.337,91.985z
		 M108.367,77.495c1.307-1.297-0.002-3.196-1.89-3.15C106.687,75.814,107.122,77.059,108.367,77.495z M175.781,77.495
		c-1.356-2.646-7.936-3.39-10.711-2.52C168.224,76.153,171.982,78.924,175.781,77.495z M69.934,80.015
		c0.63-1.05,2.914-0.446,3.15-1.89c0.071,0.769,0.188,1.492,1.26,1.26c0.51-2.4-1.846-1.934-1.89-3.78
		c-1.939,0.441-1.211,0.441-3.15,0c-0.455,1.925,0.644,2.296,0.63,3.78C69.584,79.383,69.219,79.895,69.934,80.015z M199.722,77.495
		c2.018,1.883,3.501,0.384,6.931,0.63C206.713,75.328,200.513,75.76,199.722,77.495z M247.605,78.125c1.68,0,3.36,0,5.04,0
		C252.309,76.086,247.514,75.452,247.605,78.125z M132.308,80.015c0.087-2.817-3.04-2.421-5.041-3.15
		C127.594,79.268,129.515,80.077,132.308,80.015z M146.799,80.645c0.409-2.746-3.988-3.955-5.67-2.52
		C142.19,79.793,143.913,80.8,146.799,80.645z M268.396,80.015c0.84,0,1.681,0,2.521,0c-0.099-0.741,0.108-1.789-0.63-1.89
		C270.536,79.634,267.417,77.775,268.396,80.015z M170.741,82.535c-0.639-3.771-5.935-2.886-10.081-3.15
		C162.334,83.106,167.324,81.839,170.741,82.535z M200.982,80.645c0.746,0.802,2.38,0.267,3.15-0.63
		C202.663,79.823,201.417,78.67,200.982,80.645z M252.645,81.275c2.501-0.439,6.979,1.098,7.561-1.26
		C258.088,79.217,253.532,79.015,252.645,81.275z M140.499,83.795c-0.662-2.908-3.042-4.099-6.931-3.78
		C134.692,82.461,137.928,82.795,140.499,83.795z M275.327,83.795c2.21,1.364,3.621-1.31,6.301,0
		c-0.247-1.921,1.656-3.208-0.631-3.78C280.868,83.036,276.561,81.879,275.327,83.795z M69.934,85.685
		c-0.057,0.993-1.607,0.493-1.26,1.891c2.06,1.995-0.491,5.447,1.89,6.301c0.594-3.409,1.73-9.595,0.63-12.601
		c-0.712,3.634-0.725,0.134-2.52,0C67.744,84.096,70.519,83.21,69.934,85.685z M217.363,81.905c-0.314,3.208,6.382,2.238,6.301,0
		C221.834,81.088,219.192,81.088,217.363,81.905z M124.748,86.945c0.024-2.335-0.968-3.653-1.89-5.041c-0.84,0-1.68,0-2.52,0
		C121.224,84.169,122.144,86.398,124.748,86.945z M96.396,85.685c-0.523,3.482,3.439,5.776,5.04,5.041
		C98.713,90.089,98.971,86.47,96.396,85.685z M100.176,88.205c0.139-2.477-2.194-5.75-3.78-4.41
		C97.983,84.938,98.187,87.464,100.176,88.205z M104.586,90.096c0.657,0.662,2.449,3.351,3.15,1.89c-0.635-0.007-0.792-1.104,0-1.26
		c1.626,0.054,0.663,2.697,3.15,1.89c-1.524-4.566-5.183-6.998-8.821-9.45c0.311,3.89,4.312,4.088,5.041,7.561
		C105.529,91.557,105.134,88.234,104.586,90.096z M245.714,83.165c-2.762-0.012-5.9-0.024-6.3,0.63
		C240.49,84.793,245.849,86.558,245.714,83.165z M201.612,84.425c-0.43,1.95,3.61,2.624,4.41,1.26
		C204.419,85.319,202.95,83.162,201.612,84.425z M113.407,91.985c-1.383,3.253,0.585,6.33-1.26,9.45
		c7.591-1.564-0.875-7.775,3.15-10.71c-2.347-2.273-3.755-5.485-7.561-6.301C107.566,89.005,112.143,88.839,113.407,91.985z
		 M177.041,91.985c-4.07-3.074-9.45-8.186-15.751-6.931c2.772,1.849,7.626,1.615,9.451,4.41c-4.575-1.054-6.811-1.03-10.081-3.78
		c-0.396,1.074-1.903,1.037-2.52,1.891c4.245,1.013,9.778,4.073,10.081,6.931c-2.207-0.52-5.599,0.507-7.561,3.15
		c2.386,1.616,6.863,4.461,8.82,4.41c-1.861-1.479-6.048-3.35-5.04-5.671c1.955,0.59,4.923,3.445,6.931,1.891
		c-3.278-0.085-0.458-2.556-0.63-3.15c1.664,0.672,3.482,4.461,5.67,2.521c-1.418-1.958-7.278-2.782-5.67-5.671
		c9.934,5.816,16.739,14.762,24.571,22.682c1.281,2.919,2.657,5.742,4.41,8.19c-0.264-3.122,0.19-2.053,2.52-1.891
		c-1.193-2.777-2.34-7.597-5.67-6.3c0.015-1.484-1.085-1.855-0.63-3.78c-2.498-1.912-4.357-4.464-7.561-5.671
		c-3.599-7.322-12.029-9.812-17.011-15.751C173.147,90.026,175.317,93.463,177.041,91.985z M194.682,116.557
		c0.06,0.99-0.085,2.185,1.26,1.891c0-0.42,0-0.84,0-1.261C195.31,117.188,195.192,116.677,194.682,116.557z M198.461,108.366
		c-6.331-2.278-8.191-9.029-14.49-11.341c0.392,4.408,4.95,5.234,7.561,7.561c6.022,5.368,9.896,11.947,13.86,19.531
		c0.279,1.19-0.856,3.797,1.261,3.15C206.463,118.426,202.138,113.721,198.461,108.366z M209.172,126.008
		c0.184-3.334-0.899-5.401-3.15-6.301C207.799,121.081,206.089,125.94,209.172,126.008z M180.821,91.985
		c-0.633,1.086,2.299,3.978,5.04,3.78C185.063,93.624,182.886,92.859,180.821,91.985z M182.711,92.615
		c5.894,3.263,12.354,3.701,14.49,9.451c5.961,1.81,7.335,8.206,13.23,10.08c-0.837-4.198-5.107-6.409-8.19-9.45
		c-5.651-5.577-8.632-13.528-17.011-13.231c1.815,1.756,5.398,1.742,6.301,4.411c-5.116-0.975-7.099-5.083-12.601-5.671
		c-2.004-0.307-1.02-3.601-3.78-3.15C175.464,88.407,179.624,90.906,182.711,92.615z M270.917,85.685
		c-0.775,2.095,4.259,1.541,4.41,0.631C272.887,86.912,272.732,83.859,270.917,85.685z M76.865,98.286
		c0.619-4.953-3.114-7.748-1.26-11.971c-0.867,0.027-1.383-0.297-1.89-0.631C74.069,90.58,72.578,97.322,76.865,98.286z
		 M103.956,88.835c0.034-1.084-0.485-1.615-1.26-1.89C102.663,88.029,103.181,88.561,103.956,88.835z M219.253,89.465
		c2.612-0.17,2.455,0.828,4.41,0C223.653,86.496,219.062,86.214,219.253,89.465z M157.509,88.835
		c-1.993,0.104-2.105-1.674-4.41-1.26C152.283,89.911,156.83,90.078,157.509,88.835z M212.323,90.096
		c1.418,0.629,2.8,3.151,3.15,0.63c-2.521-0.42-3.519-2.362-6.301-2.521C207.873,90.778,211.232,89.611,212.323,90.096z
		 M227.444,88.835c-1.098,0.048-1.96-0.141-2.521-0.63C223.915,89.96,227.644,89.947,227.444,88.835z M269.026,90.726
		c2.632,0.557,9.065-0.041,10.711-2.521C274.589,87.469,271.844,89.133,269.026,90.726z M79.385,98.286
		c0.258-0.792,0.812-1.288,1.89-1.261c0.566,1.845,0.566,1.937,0,3.78c2.494-0.813,1.287,2.074,3.78,1.261
		c-0.369-4.157,1.397-8.432-2.52-11.341c-0.442,2.751,1.071,3.549,0.63,6.3c-0.746-0.935-2.38-0.979-3.15-1.89
		c-0.621-1.305-0.923-6.169-2.52-4.41C77.922,92.336,77.449,96.542,79.385,98.286z M160.03,93.876c0.07-2.382-1.233-3.388-3.15-3.78
		C156.809,92.477,158.112,93.482,160.03,93.876z M259.576,93.876c1.202-1.948,6.442,0.142,6.3-3.15
		C262.752,90.354,257.985,91.626,259.576,93.876z M148.689,95.136c0.731,0.528,1.689,0.831,3.15,0.63
		c0.201-1.479,0.995-2.365,0.63-4.41C150.136,91.543,148.331,92.258,148.689,95.136z M90.095,95.136
		c-0.114,1.374,0.516,2.004,1.89,1.89C92.419,95.332,90.683,95.808,90.095,95.136z M90.726,98.916
		c-0.037-2.508-3.736-4.632-5.041-3.78c1.181,4.975,6.185,5.568,10.081,6.3c0.034,1.084-0.485,1.615-1.26,1.891
		c-5.046-0.006-6.582,3.499-10.081,5.04c-0.394,1.913,3.755,2.479,1.26,4.41c-0.265-1.204-0.228-2.712-1.89-2.52
		c-0.846,0.414-1.173,1.347-1.26,2.52c1.539,0.629,1.342,0.209,3.78,0.63c-0.508,2.818,1.121,3.5,3.15,3.78
		c-1.04-2.32-0.579-6.141-2.52-7.56c2.219-2.121,3.817-1.119,5.67-1.261c0.027-0.867-0.297-1.383-0.63-1.89
		c3.206-0.821,5.302-4.234,8.191-1.891c-0.178-1.647,0.23-2.71,1.89-2.52c0.099,0.741-0.108,1.788,0.63,1.89
		c-0.114-2.844,3.779-1.681,3.78-4.41c-3.14-1.061-4.476-3.925-7.561-5.04c0,1.05,0,2.1,0,3.15c0.979,0.911,2.94,0.84,3.78,1.89
		c-2.219,1.125-8.09-0.783-9.451-0.63c0.117-0.934,1.522-0.578,2.52-0.63c-0.301-3.479-2.354-5.207-5.04-6.301
		c-0.063,3.003,2.431,3.449,2.52,6.301C92.054,98.145,91.855,98.996,90.726,98.916z M86.945,99.546c0,0.42,0,0.84,0,1.26
		c0.42,0,0.84,0,1.26,0c0-0.42,0-0.84,0-1.26C87.785,99.546,87.365,99.546,86.945,99.546z M88.835,110.887
		c1.837,0.926,1.837-2.816,0-1.891C88.835,109.627,88.835,110.257,88.835,110.887z M95.766,107.106
		c1.66,0.189,2.068-0.873,1.89-2.521C95.994,104.395,96.031,105.901,95.766,107.106z M229.333,93.876
		c0.279-3.22-4.456-1.424-6.93-1.891C223.604,94.703,226.844,93.808,229.333,93.876z M144.909,97.656
		c-0.234-2.077-1.472-3.148-2.52-4.411C140.576,95.374,143.177,97.122,144.909,97.656z M239.415,94.506
		c2.786,0.153,4.59,1.29,7.561,1.26C246.052,93.344,241.293,92.431,239.415,94.506z M105.216,97.025
		c1.066-2.788-2.579-4.085-3.78-2.52C103.346,94.696,103.206,96.937,105.216,97.025z M117.187,96.396
		c1.754,1.01,1.742-2.721,0.63-2.52C117.619,94.728,116.92,95.079,117.187,96.396z M112.147,97.656
		c0.201-1.462-0.102-2.419-0.63-3.15c-0.63,0-1.26,0-1.89,0C110.021,96.002,110.474,97.438,112.147,97.656z M231.224,96.396
		c-1.44-0.282-4.442-2.222-5.671-0.63C226.972,96.069,230.272,97.711,231.224,96.396z M141.128,98.286
		c-1.55-0.55-1.411-2.79-3.78-2.521C136.65,98.187,140.047,99.73,141.128,98.286z M226.184,97.656
		c-2.021-0.31-7.645-2.961-7.561-1.261C221.548,96.015,223.317,100.07,226.184,97.656z M146.169,101.436
		c2.985-0.675,1.458,3.163,3.78,3.15c-0.794-2.75-0.186-2.801,0.63-5.04c-0.435-1.287-2.164-4.5-3.78-2.521
		c0.873,1.018,1.785,1.995,2.52,3.15c-1.436,0.865-2.368-1.624-2.52,0C147.92,100.481,146.526,100.848,146.169,101.436z
		 M197.832,104.586c-3.807-2.283-5.279-6.9-10.08-8.19C190.162,99.662,194.1,104.739,197.832,104.586z M267.136,96.396
		c-1.306,0.375-4.139-0.778-4.41,0.63C263.787,98.522,266.221,98.209,267.136,96.396z M219.883,99.546
		c-1.497-0.225-3.623-3.041-5.04-1.26C216.569,98.622,218.552,102.653,219.883,99.546z M243.825,98.916
		c1.581-0.52,5.425,1.225,5.04-1.26C246.721,97.612,244.468,97.46,243.825,98.916z M113.407,102.696
		c-3.553,1.914-10.803,3.468-10.71,6.931c6.79-0.561,8.841-5.86,15.121-6.931c-0.164-1.845,1.425-1.936,1.26-3.78
		c-0.806-0.035-0.873-0.808-1.89-0.63C115.837,99.667,115.227,101.785,113.407,102.696z M77.495,101.436
		c-0.144-1.116,0.635-3.154-1.26-2.52C76.059,100.352,76.386,101.284,77.495,101.436z M177.041,102.696
		c1.88,1.06,3.384,2.496,5.671,3.15c-1.175-2.815-2.741-5.239-5.041-6.931C178.127,100.843,176.583,100.769,177.041,102.696z
		 M63.634,99.546c-0.043,0.008,0.039,0.586,0,0.63C60.642,103.595,66.659,99.012,63.634,99.546z M156.879,104.586
		c0.239-2.969-0.051-5.409-3.15-5.04C153.63,102.375,155.051,103.685,156.879,104.586z M105.216,103.956
		c2.338-0.182,4.328-0.712,5.041-2.521C107.991,99.631,106.228,102.538,105.216,103.956z M126.007,102.696
		c1.084,0.033,1.615-0.485,1.89-1.261C126.908,101.496,125.713,101.352,126.007,102.696z M124.748,105.847
		c-0.381-1.299,1.017-4.377-1.26-3.78C122.614,102.93,122.886,105.865,124.748,105.847z M181.451,109.627
		c-0.488-4.142-5.07-7.518-8.82-6.301C175.754,105.242,177.106,108.932,181.451,109.627z M137.978,106.477
		c-0.584,1.904,0.9,4.899,0,5.04c-1.335-2.235-1.321-5.819-3.78-6.931c0.034,1.084-0.485,1.615-1.26,1.891
		c-0.935-0.746-0.98-2.38-1.89-3.15c-1.024,2.713-0.082,8.323,3.15,8.82c0.817-1.562-1.406-3.058,0-3.15
		c0.119,1.771,2.056,1.725,2.52,3.15c-1.473,2.089,1.157,4.431,1.26,6.931c1.098,0.047,1.959-0.141,2.521-0.63
		c-0.847-2.094-1.99-3.891-2.521-6.301c2.409,0.532,2.329,3.552,3.15,5.671c4.087-0.561,0.416-4.013,0-5.671
		c-0.315-1.232,1.374-4.021,0-2.52C140.437,110.682,139.115,107.062,137.978,106.477z M214.843,109.627
		c-1.292-3.329-4.508-4.733-7.561-6.301C208.929,106.3,210.107,109.742,214.843,109.627z M144.909,112.146
		c-0.562,1.983-0.645,3.78,0,6.301C148.083,117.657,147.572,113.179,144.909,112.146z M158.14,108.366
		c-0.672,0.588-0.196,2.324-1.89,1.891c-0.73-1.791-1.3-3.74-3.78-3.78c0.036,2.274,1.57,3.05,1.89,5.04
		c-1.601-1.659-2.552,0.118-3.15,1.26c-3.192-2.688-6.449-5.311-8.82-8.82c1.826,4.895,5.188,8.252,6.3,13.861
		c0.506-1.595,2.594-1.607,3.78-2.521c0.987,0.903,0.496,3.284,2.52,3.15c1.106-0.743-1.455-3.124-1.26-5.041
		c2.462,0.899,2.114,4.606,5.041,5.041c-0.335-1.766-0.925-3.275-1.26-5.041c1.633,1.451,2.909,1.236,4.41,0.631
		C162.812,109.994,160.361,109.295,158.14,108.366z M163.81,111.517c0.107-0.942-0.226-2.325,0.63-2.521
		c8.59,1.7,13.213,7.369,18.901,11.971c-2.843-8.708-10.292-12.81-18.271-16.381c-0.469,1.939,1.729,1.211,1.26,3.15
		c-1.674-0.634-3.208-0.657-4.41,0.63C163.024,109.31,161.363,110.996,163.81,111.517z M161.29,106.477
		c-1.252-0.009-0.801-1.719-2.52-1.261C158.658,107.037,160.898,108.688,161.29,106.477z M200.352,108.996
		c2.396,3.485,4.171,7.59,8.19,9.451C209.663,113.671,203.654,111.369,200.352,108.996z M204.762,108.996
		c-2.063-0.538-2.977-4.598-5.04-3.149C199.935,107.971,202.981,110.531,204.762,108.996z M93.875,111.517
		c3.266-0.095,6.456-0.265,6.301-3.78C98.113,106.804,94.858,109.349,93.875,111.517z M114.667,108.366
		c0.899,0.151,1.062,1.038,1.89,1.261c0.198-0.853,0.896-1.204,0.63-2.521C115.751,106.931,114.819,107.258,114.667,108.366z
		 M121.597,108.996c1.838,0.927,1.838-2.816,0-1.89C121.597,107.736,121.597,108.366,121.597,108.996z M126.638,112.146
		c2.095,0.775,1.541-4.259,0.63-4.41C126.399,108.549,126.644,110.473,126.638,112.146z M129.788,115.927
		c4.268-0.905,0.309-6.013-0.63-7.561C127.926,111.51,129.87,112.41,129.788,115.927z M190.271,118.447
		c0.377-1.122-1.847-2.617,0-3.15c0.179,3.354,2.713,4.674,3.78,6.301c0.565,0.859-0.453,3.394,1.891,2.52
		c-0.285-5.176-3.51-7.411-5.04-11.341c-1.72-0.057-1.269,1.05-2.521,0c0.278-2.378-1.242-2.958-1.891-4.41c-0.63,0-1.26,0-1.89,0
		C186.379,111.839,187.313,116.155,190.271,118.447z M168.22,113.406c-0.077-1.603-0.917-2.442-2.521-2.52
		C165.268,112.999,166.757,113.189,168.22,113.406z M214.212,116.557c-1.214-0.256-0.497-2.442-2.52-1.89
		c-1.146,4.819,5.723,6.801,7.561,10.71c0.688-2.818-3.251-4.268-1.891-5.67c0.934,1.129,3.424,4.653,4.41,1.891
		c-3.447-3.068-7.099-9.275-10.71-10.081C211.653,113.264,215.713,114.811,214.212,116.557z M91.985,111.517
		c-0.557-0.484-1.799,0.387-1.89,0.63C89.205,114.521,93.23,112.599,91.985,111.517z M183.971,114.037
		c-0.266-1.205-0.229-2.712-1.891-2.521C182.346,112.722,182.309,114.229,183.971,114.037z M105.846,114.667
		c2.636,0.987,0.688-3.848,0-1.261C106.608,113.54,106.234,114.105,105.846,114.667z M125.377,114.667
		c0.172-0.858-0.39-2.46-0.63-1.261C124.576,114.265,125.138,115.866,125.377,114.667z M225.553,116.557
		c-1.485-0.194-1.172-2.188-3.149-1.89C222.036,116.354,224.995,117.875,225.553,116.557z M93.875,117.187c0.63,0,1.26,0,1.89,0
		c0-0.63,0-1.26,0-1.89c-0.63,0-1.26,0-1.89,0C93.875,115.927,93.875,116.557,93.875,117.187z M99.546,117.187
		c0.027,0.868-0.296,1.384-0.63,1.891c1.569,1.384,4.139-0.051,4.41-1.891C102.009,115.813,101.528,117.502,99.546,117.187z
		 M102.066,120.967c1.873,0.92,4.746-1.74,6.301-3.149c-1.121-0.561-1.602-1.76-3.78-1.261
		C106.613,119.637,103.01,119.16,102.066,120.967z M90.726,118.447c0.63,0,1.26,0,1.89,0c0.081-1.132-0.626-1.475-1.89-1.261
		C90.726,117.607,90.726,118.027,90.726,118.447z M93.246,118.447C94.571,124.21,99.898,118.882,93.246,118.447L93.246,118.447z
		 M126.007,122.228c2.393,1.27,2.498-2.864,1.26-3.15C126.998,120.277,125.91,120.66,126.007,122.228z M184.601,119.707
		c1.754,3.286,3.983,6.098,7.561,7.561C190.873,123.517,187.922,121.426,184.601,119.707z M190.902,122.857
		c0.025-1.916,0.366-4.146-1.891-3.78C187.878,120.284,188.834,122.956,190.902,122.857z M139.238,124.747c0-1.26,0-2.52,0-3.78
		c-0.63,0-1.26,0-1.89,0C137.668,122.537,137.328,124.768,139.238,124.747z M141.128,126.638c0.42,0,0.84,0,1.26,0
		c0.489-0.142,1.243-0.018,1.26-0.63c-2.259-0.472,0.084-5.545-3.15-5.041C139.75,123.826,142.84,124.741,141.128,126.638z
		 M161.29,122.228c0.42,0,0.84,0,1.26,0c0-0.42,0-0.841,0-1.261c-0.42,0-0.84,0-1.26,0
		C161.29,121.387,161.29,121.808,161.29,122.228z M223.034,123.487c1.619,0.061,0.9,2.459,2.52,2.521
		c0.071-0.77,0.188-1.492,1.261-1.261c-0.046,2.146,1.853,2.348,3.149,3.15C229.78,124.759,225.274,120.523,223.034,123.487z
		 M147.429,127.268c0.552-2.427,0.473-4.175-2.52-4.41C145.375,124.701,146.432,125.954,147.429,127.268z M213.583,130.418
		c2.657,0.106-0.011-0.968,0-1.891c2.8-0.524,1.821-4.294,1.261-5.67c-0.14,0.491-0.528,0.732-1.261,0.63
		c0.208,1.473,0.758,2.603,1.261,3.78c-0.631,0-1.261,0-1.891,0C212.432,129.048,213.84,128.899,213.583,130.418z M223.664,127.268
		c-0.555-1.546-0.567-3.633-2.521-3.78C220.891,125.839,221.647,127.184,223.664,127.268z M212.323,127.897
		c0.131-1.811-0.16-3.2-1.26-3.78C210.932,125.928,211.222,127.317,212.323,127.897z M199.092,127.268
		c2.426,0.496,2.426-3.017,0-2.521C198.042,125.999,199.149,125.549,199.092,127.268z M218.624,126.638
		c-0.993-0.058-0.494-1.607-1.891-1.261C215.738,127.118,218.369,128.205,218.624,126.638z M150.579,128.527
		c-0.144-1.116,0.635-3.155-1.26-2.52C149.406,127.181,149.733,128.113,150.579,128.527z M211.063,129.788
		c-0.118-1.772-1.097-2.685-3.15-2.521C208.031,129.04,209.008,129.952,211.063,129.788z M223.664,134.198
		c1.707-2.16-0.684-5.593-2.521-6.301C221.279,130.702,221.292,133.63,223.664,134.198z M233.114,130.418
		c0.992-0.937,0.702-2.815-1.26-2.521C231.941,129.071,232.268,130.003,233.114,130.418z M236.894,130.418
		c0.178-1.648-0.229-2.71-1.89-2.521C233.866,128.978,235.197,130.375,236.894,130.418z M235.634,137.348
		c-0.354-1.368-3.094-3.569-4.41-1.89C232.676,136.105,233.255,137.627,235.634,137.348z M229.333,133.568
		c-0.133,0.706-0.699,0.98-1.26,1.26c-0.333-2.188-1.706-3.334-2.521-5.04c-0.319,4.52,1.668,6.732,5.041,7.56
		C232.029,135.923,230.167,134.577,229.333,133.568z M216.103,133.568c-0.744-0.091-1.429-1.122-1.891,0
		C214.958,133.659,215.641,134.689,216.103,133.568z M183.341,134.828c0.139-0.491,0.527-0.732,1.26-0.63
		c0.144,1.116-0.635,3.155,1.26,2.52C187.018,133.603,181.783,132.954,183.341,134.828z M178.931,141.759
		c1.771-0.118,2.684-1.097,2.52-3.15c-0.63,0-1.26,0-1.89,0C179.819,140.126,178.41,139.978,178.931,141.759z M172,146.169
		c0.452-0.671,2.46-2.902,0.63-3.78C173.118,143.998,170.165,145.285,172,146.169z M69.934,156.879
		c0.363-1.317,1.562-1.798,1.26-3.78C69.073,152.298,68.589,156.294,69.934,156.879z M258.946,156.879
		c0.098-1.777-1.781-1.579-2.521-2.52C256.153,156.475,257.756,158.078,258.946,156.879z M56.073,168.85c0.63,0,1.26,0,1.89,0
		c0.081-1.131-0.625-1.474-1.89-1.26C56.073,168.01,56.073,168.43,56.073,168.85z"/>
</g>
</svg>
